<svg version="1" xmlns="http://www.w3.org/2000/svg" width="1365.333" height="1365.333" viewBox="0 0 1024.000000 1024.000000"><path d="M27.5 202c-16.5.5-18.4 1-22 5.2-2 2.3-2 3.9-2.3 308.6-.2 279.4-.1 306.7 1.4 309.7.9 1.9 3 4.3 4.7 5.5 3.2 2 3.8 2 131.2 1.7 70.4-.2 129.8-.6 132-1 2.2-.4 6.4-.9 9.4-1.3 2.9-.3 6.4-.8 7.7-1 1.3-.2 3.6-.6 5.1-.8 4.4-.6 17.1-3.5 25.3-5.7 28.7-7.7 61.8-24.5 81.5-41.3 8.8-7.5 22.6-21.6 26.5-27.2 11-15.7 18.7-28.9 22.7-38.9 4.2-10.5 5.5-14.5 8.2-25.6 3.4-14.1 3.9-17.2 4.8-28.4 1-11 .9-280.2 0-289.2-4.9-48.1-26.2-88.6-62.7-119.6-12.2-10.3-37.7-25.3-53.9-31.7-19.1-7.5-39.9-13-58.6-15.6-2.2-.3-6.7-1-10-1.5s-13.9-1.1-23.5-1.5c-22.3-.7-206.3-1.1-227.5-.4zm234 110.5c42.9 7.6 70.9 39.8 75.2 86.5.9 9.5.9 224 0 234-2.2 25.4-11.6 47.8-26.9 64-8.8 9.5-23.8 18.8-35.8 22.5-13.2 4-19.4 4.3-81.2 4.3-54.9 0-59.8-.1-61.2-1.7-1.4-1.5-1.5-23.2-1.3-205.4.2-179.9.4-203.9 1.7-204.7.9-.6 24.9-1 61.5-.9 46.9 0 61.7.3 68 1.4zM564.5 202c-3.3 1.3-6.3 5.2-7.3 9.5-1.5 6.5-.9 609.1.6 613.6.9 2.4 2.5 4.2 5.1 5.7 3.8 2.2 4.3 2.2 56.5 2.2 58.2 0 58.4 0 62.1-6.3 1.9-3.1 2-6.1 2-119.5.1-102.9.3-116.4 1.6-117.8 1.4-1.3 11.1-1.5 79-1.8 42.6-.2 78.5-.6 79.9-1 1.4-.3 4.9-.8 7.9-1.1 3-.3 6.4-.8 7.5-1 1.2-.3 3.2-.7 4.6-.9 27.3-4.9 55.7-16 76.5-29.9 15.1-10.1 30.6-24.1 41-37.2 10.2-12.6 19.9-29.7 25.9-45.1 3.3-8.7 7.9-23.9 9-29.9.3-1.7.8-4.1 1.1-5.5 3.5-17.5 4.1-52.4 1.1-72.8-3.1-21.1-8.6-39.8-16.6-56.9-21.8-46.4-58-78-108.2-94.7-5.5-1.9-12.9-3.9-14.8-4.2-.8-.1-4.7-.9-8.6-1.8-6.9-1.5-8.7-1.8-22.9-3.5-8.9-1.2-280.3-1.3-283-.1zM827 313.3c17.9 4.4 31 11.2 42 21.9 4.7 4.5 12 13.1 12 14.1 0 .3 1.3 2.7 3 5.4 2.8 4.6 7.3 16.6 8.5 22.8 1.6 8.4 1.8 10.9 1.8 21.5 0 12.6-.5 16.4-3.3 27-7.5 28.4-34.4 52.4-64.6 57.6-1.3.2-3.6.7-5.1 1.1-1.6.3-32.3.8-68.3 1-55.1.3-65.9.1-67.5-1.1-1.9-1.3-1.9-3.8-1.9-85.9 0-70.3.2-84.8 1.4-86.1 1.2-1.6 6.9-1.7 68.4-1.3 57.5.3 68 .6 73.6 2z"/></svg>